<svg xmlns="http://www.w3.org/2000/svg" width="80" height="82.287" viewBox="0 0 80 82.287">
    <defs>
        <linearGradient id="linear-gradient" x1=".059" x2=".954" y1=".146" y2=".565" gradientUnits="objectBoundingBox">
            <stop offset="0" stop-color="#bb76db"/>
            <stop offset="1" stop-color="#727cf5"/>
        </linearGradient>
        <linearGradient id="linear-gradient-2" x1=".121" x2=".877" y1=".275" y2=".777" gradientUnits="objectBoundingBox">
            <stop offset="0" stop-color="#727cf5"/>
            <stop offset="1" stop-color="#727cf5"/>
        </linearGradient>
    </defs>
    <g id="logo_iphone" transform="translate(-574.17 -566.375)">
        <path id="Path_402" fill="url(#linear-gradient)" d="M134.571 95.13c-3.179-.906-6.509-1.359-11.656-2.265-12.716-2.114-18.015-3.02-21.194.6-5.819 6.435 1.893 18.88 5.468 23.854.522.726.955 1.293 1.246 1.658l.024.031.1.123.03.036.1.117c.145.188.295.374.446.559l.107.13q.213.258.432.514l.027.032q.257.3.523.593.3.329.6.653.228.242.461.481l.208.209.329.33.237.232.311.3.249.235.311.29.251.231.322.29.243.217q.179.158.36.314l.209.182q.285.245.572.485l.016.014c.707.59 1.419 1.155 2.127 1.694l.05.038q.69.523 1.37 1.011l.046.033q.325.233.646.457l.092.064c.214.149.426.3.637.438l.009.006q.308.21.61.409l.1.064q.292.193.578.378l.111.071c.194.125.386.247.575.366a23.394 23.394 0 0 1 6.661-5.889c-.145-.082-.3-.168-.448-.257l-.115-.067q-.465-.272-.973-.586l-.126-.078q-.512-.319-1.057-.675l-.133-.087-.555-.369c-.186-.126-.375-.255-.564-.386l-.141-.1q-.533-.371-1.078-.769l-.15-.11-.359-.266-.174-.131-.354-.269-.159-.122q-.507-.391-1.014-.8l-.155-.127-.354-.292-.176-.147q-.176-.148-.351-.3l-.157-.134q-.248-.214-.493-.431-.246-.219-.488-.441l-.15-.139q-.169-.156-.336-.314l-.167-.159q-.165-.158-.328-.318l-.148-.145q-.23-.228-.455-.459l-.005-.005q-.225-.232-.444-.466l-.137-.149q-.152-.165-.3-.331l-.149-.168q-.147-.166-.29-.334l-.13-.152c-.135-.16-.268-.321-.4-.482-.2-.263-.39-.525-.58-.787l-.214-.3q-.169-.236-.333-.472c-.086-.123-.173-.246-.257-.369q-.209-.3-.411-.607l-.027-.04c-1.031-1.543-1.938-3.065-2.718-4.524a4.374 4.374 0 0 1 4.541-6.342l5.9.906c5 .906 8.023 1.359 10.9 2.114 8.816 2.231 22.893 5.719 31.2 15.319l6.167-6.314c-10.16-11.266-25.996-15.302-35.099-17.604z" data-name="Path 402" transform="translate(474.555 475.362)"/>
        <path id="Path_403" fill="url(#linear-gradient-2)" d="M280.5 253.49l-6.167 6.314a27.281 27.281 0 0 1 3.319 4.763c3.33 6.191 7.569 20.535-.757 31.1-7.872 9.965-23.162 12.835-32.85 6.191a17.927 17.927 0 0 1-7.418-11.476 17.663 17.663 0 0 1 2.876-13.438 13.316 13.316 0 0 1 18.772-3.322 9.78 9.78 0 0 1 2.574 13.74 7.357 7.357 0 0 1-9.991 1.661 4.384 4.384 0 0 0-6.207 1.661c-1.211 1.963-.3 4.53 1.665 5.889a15.769 15.769 0 0 0 21.648-4.228 18.632 18.632 0 0 0-4.693-25.971 22.472 22.472 0 0 0-23.918-.906 23.394 23.394 0 0 0-6.661 5.889l-.3.453A26.715 26.715 0 0 0 228 291.746a26.04 26.04 0 0 0 11.051 17.213c7.72 5.436 18.015 6.493 27.249 3.775a34.415 34.415 0 0 0 17.56-11.627c9.689-12.382 7.721-29.444 1.514-40.768a36.1 36.1 0 0 0-4.874-6.849z" data-name="Path 403" transform="translate(363.589 334.487)"/>
    </g>
</svg>
